<svg width="440" height="446" viewBox="0 0 440 446" fill="none" xmlns="http://www.w3.org/2000/svg">
<path opacity="0.7" d="M64.4397 410.598C150.354 457.19 289.65 457.2 375.564 410.598C461.479 363.996 461.479 288.433 375.564 241.831C289.65 195.229 150.354 195.229 64.4397 241.831C-21.4747 288.433 -21.4851 363.996 64.4397 410.598Z" fill="#F0F0F0"/>
<path d="M117.258 306.053C150.059 306.053 176.649 293.381 176.649 277.749C176.649 262.116 150.059 249.444 117.258 249.444C84.4581 249.444 57.8682 262.116 57.8682 277.749C57.8682 293.381 84.4581 306.053 117.258 306.053Z" fill="#E0E0E0"/>
<path d="M42.6227 275.905L49.2979 272.094C49.2979 272.094 52.5054 254.453 50.1102 239.29C46.7361 217.963 32.2192 210.61 26.9498 212.724C21.6804 214.838 20.4411 221.16 29.9594 233.479C35.6245 240.727 42.8101 256.119 42.6227 275.905Z" fill="#228CBA"/>
<g opacity="0.1">
<path d="M42.6227 275.905L49.2979 272.094C49.2979 272.094 52.5054 254.453 50.1102 239.29C46.7361 217.963 32.2192 210.61 26.9498 212.724C21.6804 214.838 20.4411 221.16 29.9594 233.479C35.6245 240.727 42.8101 256.119 42.6227 275.905Z" fill="black"/>
</g>
<path d="M45.0491 267.439H44.997C44.8726 267.418 44.7609 267.351 44.6853 267.25C44.6096 267.149 44.5758 267.023 44.5909 266.897C47.3298 246.976 39.3007 225.107 30.2823 216.255C30.1966 216.165 30.149 216.046 30.1494 215.922C30.1498 215.798 30.1983 215.679 30.2845 215.59C30.3708 215.501 30.4882 215.449 30.6121 215.445C30.7359 215.441 30.8566 215.485 30.9487 215.567C40.1338 224.544 48.3191 246.809 45.5282 267.033C45.5106 267.147 45.4525 267.251 45.3645 267.325C45.2765 267.4 45.1645 267.44 45.0491 267.439Z" fill="white"/>
<path d="M24.1069 286.611C23.0655 287.215 20.8786 285.892 20.0455 285.33C18.6181 284.356 17.4637 283.033 16.6922 281.487C15.837 279.73 15.546 277.751 15.8591 275.822C16.0259 274.803 16.266 273.797 16.5777 272.812L17.4212 269.886C17.7581 268.942 17.9032 267.94 17.8482 266.939C17.5878 264.94 15.7654 263.534 14.2033 262.326C12.4121 260.993 10.5585 259.201 10.5689 256.817C10.689 254.953 11.4212 253.181 12.6517 251.776C13.7972 250.318 15.1614 249.038 16.2028 247.496C17.0189 246.423 17.4483 245.106 17.4212 243.758C17.3052 242.93 17.0255 242.133 16.5985 241.415C15.6228 239.924 14.7695 238.357 14.0471 236.728C13.4535 235.041 13.5368 232.948 14.8594 231.74C15.4484 231.296 16.1207 230.975 16.8363 230.796C17.552 230.617 18.2963 230.584 19.025 230.699C20.3932 230.861 21.7088 231.324 22.8781 232.053C26.7 234.135 28.8869 238.697 32.9379 240.384C34.5513 240.879 36.1926 241.279 37.8532 241.581C38.6778 241.734 39.4613 242.058 40.1535 242.531C40.8458 243.005 41.4314 243.617 41.873 244.33C43.3621 247.309 40.6025 250.964 41.6543 254.13C42.5811 256.921 45.2887 257.983 46.8612 260.503C47.479 261.616 47.727 262.896 47.5693 264.158C47.443 266.297 46.9241 268.394 46.0385 270.344C45.0441 272.278 43.9095 274.137 42.6436 275.905C42.5603 275.968 24.2631 286.548 24.1069 286.611Z" fill="#228CBA"/>
<path d="M34.9373 280.831C34.8748 280.83 34.8133 280.816 34.7562 280.791C34.6992 280.765 34.6478 280.728 34.6051 280.683C34.5624 280.637 34.5293 280.584 34.5076 280.525C34.486 280.466 34.4763 280.404 34.4791 280.342C35.2601 261.44 26.3563 240.582 19.8997 234.521C19.8545 234.478 19.8182 234.427 19.7927 234.371C19.7672 234.314 19.7531 234.254 19.7512 234.192C19.7493 234.13 19.7595 234.068 19.7814 234.01C19.8033 233.952 19.8364 233.899 19.8788 233.854C19.9212 233.809 19.9721 233.773 20.0285 233.747C20.085 233.722 20.1459 233.708 20.2078 233.706C20.2696 233.704 20.3313 233.714 20.3892 233.736C20.4471 233.758 20.5002 233.791 20.5453 233.833C27.1477 240.009 36.239 261.222 35.4371 280.373C35.4359 280.436 35.4218 280.499 35.3957 280.556C35.3696 280.614 35.332 280.666 35.2853 280.709C35.2385 280.752 35.1836 280.785 35.1238 280.806C35.064 280.827 35.0005 280.835 34.9373 280.831Z" fill="white"/>
<path d="M32.1152 258.514H31.9694C27.4916 257.28 22.8929 256.536 18.2543 256.296C18.1407 256.279 18.037 256.222 17.962 256.135C17.887 256.048 17.8457 255.937 17.8457 255.822C17.8457 255.707 17.887 255.596 17.962 255.509C18.037 255.422 18.1407 255.365 18.2543 255.348C22.9736 255.59 27.6526 256.345 32.2089 257.598C32.3184 257.631 32.4123 257.703 32.4736 257.799C32.535 257.896 32.5597 258.011 32.5433 258.124C32.527 258.238 32.4706 258.341 32.3844 258.417C32.2982 258.492 32.1879 258.534 32.0735 258.535L32.1152 258.514Z" fill="white"/>
<path d="M368.628 372.056C372.221 364.246 385.291 350.666 398.048 344.251C410.805 337.837 426.936 336.274 434.569 343.523C441.671 350.271 435.683 360.903 422.072 363.538C408.461 366.173 388.894 368.318 378.584 378.919L362.016 390.125L368.628 372.056Z" fill="#228CBA"/>
<path opacity="0.1" d="M368.628 372.056C372.221 364.246 385.291 350.666 398.048 344.251C410.805 337.837 426.936 336.274 434.569 343.523C441.671 350.271 435.683 360.903 422.072 363.538C408.461 366.173 388.894 368.318 378.584 378.919L362.016 390.125L368.628 372.056Z" fill="black"/>
<path d="M363.151 382.47C363.28 382.518 363.42 382.522 363.552 382.482C363.683 382.443 363.798 382.362 363.88 382.252C381.344 357.998 412.825 346.241 427.946 347.376C428.113 347.387 428.278 347.332 428.404 347.223C428.531 347.114 428.61 346.959 428.623 346.792C428.629 346.71 428.618 346.628 428.592 346.55C428.565 346.472 428.524 346.4 428.47 346.338C428.416 346.276 428.35 346.226 428.276 346.189C428.202 346.153 428.122 346.131 428.04 346.126C412.648 344.96 380.584 356.894 362.859 381.533C362.811 381.6 362.777 381.676 362.758 381.756C362.739 381.836 362.737 381.92 362.75 382.001C362.764 382.082 362.793 382.16 362.837 382.23C362.881 382.3 362.938 382.36 363.005 382.408C363.049 382.438 363.099 382.459 363.151 382.47Z" fill="white"/>
<path d="M359.297 401.351C362.567 397.539 371.252 392.759 382.666 390.76C395.298 388.542 408.826 391.072 413.991 387.209C420.187 382.564 417.657 374.327 407.253 371.026C396.85 367.724 373.346 373.212 361.286 392.176L359.297 401.351Z" fill="#228CBA"/>
<path d="M359.496 395.894C359.61 395.935 359.734 395.943 359.852 395.915C359.97 395.887 360.078 395.826 360.162 395.738C378.813 376.659 399.912 376.649 408.462 379.305C408.54 379.329 408.623 379.337 408.705 379.329C408.787 379.321 408.866 379.297 408.939 379.258C409.011 379.22 409.075 379.167 409.127 379.104C409.18 379.04 409.219 378.967 409.243 378.888C409.268 378.81 409.278 378.728 409.272 378.646C409.265 378.564 409.242 378.485 409.204 378.412C409.166 378.339 409.114 378.275 409.051 378.222C408.988 378.17 408.915 378.131 408.836 378.107C399.381 375.17 378.303 375.389 359.256 394.863C359.198 394.921 359.152 394.99 359.12 395.066C359.088 395.142 359.072 395.223 359.072 395.305C359.072 395.388 359.088 395.469 359.12 395.545C359.152 395.621 359.198 395.69 359.256 395.748C359.324 395.814 359.406 395.864 359.496 395.894Z" fill="white"/>
<path d="M170.213 303.45L182.439 310.5L178.367 312.854H194.655V303.45L190.583 305.803L178.367 298.743L170.213 303.45Z" fill="#228CBA"/>
<path d="M201.767 317.967C201.591 317.967 201.419 317.921 201.267 317.831L198.226 316.072C198.005 315.931 197.845 315.713 197.777 315.461C197.71 315.208 197.74 314.939 197.862 314.707C198 314.482 198.22 314.318 198.475 314.248C198.73 314.178 199.003 314.209 199.236 314.332L202.277 316.092C202.447 316.217 202.574 316.39 202.643 316.588C202.712 316.787 202.72 317.002 202.665 317.205C202.609 317.407 202.494 317.589 202.334 317.725C202.174 317.861 201.976 317.945 201.767 317.967Z" fill="#228CBA"/>
<path d="M329.889 391.937C329.713 391.937 329.54 391.89 329.389 391.801L323.526 388.417C323.357 388.253 323.249 388.038 323.219 387.805C323.189 387.572 323.238 387.336 323.358 387.135C323.479 386.934 323.664 386.779 323.883 386.696C324.102 386.613 324.343 386.606 324.567 386.678L330.42 390.062C330.589 390.186 330.716 390.358 330.786 390.556C330.855 390.753 330.864 390.967 330.81 391.17C330.756 391.372 330.642 391.554 330.483 391.691C330.324 391.827 330.128 391.913 329.92 391.937H329.889ZM315.653 383.71C315.478 383.71 315.306 383.667 315.153 383.585L309.29 380.2C309.14 380.153 309.003 380.072 308.889 379.964C308.775 379.856 308.687 379.723 308.631 379.576C308.576 379.429 308.554 379.272 308.568 379.115C308.582 378.959 308.631 378.807 308.712 378.673C308.793 378.538 308.903 378.423 309.034 378.337C309.165 378.251 309.315 378.195 309.47 378.175C309.626 378.155 309.785 378.17 309.934 378.219C310.083 378.269 310.219 378.351 310.331 378.461L316.194 381.845C316.36 381.971 316.484 382.143 316.551 382.34C316.618 382.537 316.624 382.75 316.569 382.95C316.514 383.15 316.401 383.33 316.243 383.465C316.085 383.601 315.891 383.686 315.684 383.71H315.653ZM301.417 375.493C301.241 375.494 301.069 375.447 300.917 375.358L295.054 371.942C294.833 371.802 294.673 371.584 294.605 371.331C294.538 371.078 294.568 370.809 294.69 370.578C294.83 370.354 295.05 370.192 295.305 370.124C295.56 370.057 295.832 370.088 296.064 370.213L301.927 373.598C302.093 373.723 302.217 373.896 302.284 374.093C302.351 374.289 302.357 374.502 302.302 374.702C302.247 374.903 302.134 375.082 301.976 375.218C301.818 375.353 301.624 375.438 301.417 375.462V375.493ZM287.181 367.276C287.006 367.277 286.833 367.23 286.681 367.141L280.818 363.757C280.597 363.617 280.437 363.398 280.37 363.146C280.302 362.893 280.332 362.624 280.454 362.392C280.593 362.167 280.812 362.003 281.067 361.933C281.322 361.863 281.595 361.894 281.829 362.017L287.681 365.402C287.85 365.526 287.978 365.698 288.047 365.896C288.117 366.093 288.125 366.307 288.071 366.51C288.017 366.712 287.903 366.894 287.745 367.031C287.586 367.167 287.39 367.253 287.181 367.276ZM272.946 359.06C272.77 359.061 272.597 359.014 272.446 358.925L266.583 355.54C266.414 355.377 266.306 355.161 266.276 354.928C266.246 354.696 266.295 354.46 266.415 354.258C266.536 354.057 266.721 353.902 266.94 353.819C267.159 353.736 267.4 353.73 267.624 353.801L273.487 357.185C273.711 357.326 273.873 357.546 273.94 357.801C274.008 358.056 273.976 358.327 273.852 358.56C273.757 358.715 273.624 358.843 273.465 358.931C273.306 359.018 273.127 359.063 272.946 359.06ZM258.71 350.843C258.534 350.841 258.362 350.795 258.21 350.708L252.347 347.324C252.197 347.276 252.06 347.195 251.946 347.087C251.832 346.979 251.744 346.847 251.688 346.7C251.633 346.553 251.611 346.395 251.625 346.239C251.639 346.082 251.688 345.931 251.769 345.796C251.85 345.661 251.96 345.547 252.091 345.46C252.222 345.374 252.372 345.319 252.527 345.298C252.683 345.278 252.842 345.293 252.991 345.343C253.14 345.392 253.276 345.475 253.388 345.584L259.251 348.969C259.472 349.109 259.633 349.327 259.7 349.58C259.768 349.833 259.738 350.102 259.616 350.333C259.523 350.49 259.39 350.62 259.231 350.709C259.072 350.799 258.892 350.845 258.71 350.843ZM244.474 342.616C244.3 342.617 244.128 342.574 243.974 342.491L238.111 339.107C237.943 338.943 237.835 338.728 237.805 338.495C237.774 338.263 237.823 338.027 237.944 337.825C238.064 337.624 238.249 337.469 238.469 337.386C238.688 337.303 238.929 337.297 239.153 337.368L245.016 340.752C245.181 340.878 245.305 341.05 245.372 341.247C245.439 341.444 245.445 341.656 245.39 341.857C245.336 342.057 245.222 342.237 245.064 342.372C244.906 342.508 244.712 342.593 244.505 342.616H244.474ZM230.238 334.452C230.063 334.453 229.89 334.406 229.738 334.317L223.875 330.932C223.654 330.792 223.494 330.574 223.427 330.321C223.359 330.068 223.389 329.799 223.511 329.568C223.65 329.342 223.869 329.178 224.124 329.109C224.379 329.039 224.652 329.069 224.886 329.193L230.749 332.578C230.918 332.702 231.045 332.875 231.115 333.074C231.184 333.272 231.191 333.487 231.136 333.69C231.081 333.892 230.965 334.074 230.805 334.21C230.645 334.346 230.447 334.43 230.238 334.452ZM216.003 326.235C215.827 326.236 215.654 326.189 215.503 326.1L209.64 322.716C209.471 322.552 209.363 322.336 209.333 322.104C209.303 321.871 209.352 321.635 209.472 321.434C209.593 321.233 209.778 321.078 209.997 320.995C210.216 320.912 210.457 320.905 210.681 320.976L216.544 324.361C216.768 324.501 216.93 324.721 216.997 324.976C217.065 325.232 217.033 325.503 216.909 325.736C216.808 325.881 216.672 325.998 216.513 326.077C216.355 326.155 216.179 326.192 216.003 326.183V326.235Z" fill="#228CBA"/>
<path d="M341.303 398.518C341.128 398.519 340.956 398.476 340.803 398.393L337.762 396.633C337.541 396.493 337.381 396.275 337.313 396.022C337.246 395.769 337.276 395.501 337.397 395.269C337.536 395.043 337.755 394.879 338.011 394.81C338.266 394.74 338.538 394.77 338.772 394.894L341.802 396.654C341.968 396.779 342.092 396.95 342.159 397.147C342.227 397.343 342.234 397.554 342.18 397.754C342.127 397.955 342.014 398.134 341.858 398.27C341.702 398.406 341.508 398.493 341.303 398.518Z" fill="#228CBA"/>
<path d="M407.712 135.881L406.774 135.339L377.678 118.677C370.946 114.223 363.026 111.904 354.955 112.022C344.781 112.022 334.513 115.709 322.422 122.436C280.173 145.847 244.079 213.349 244.079 257.671V269.886C244.079 323.601 314.726 389.166 314.726 389.166L344.02 406.089C344.034 406.109 344.053 406.124 344.075 406.133C344.097 406.143 344.122 406.145 344.145 406.141C343.167 404.985 375.272 358.144 405.587 266.772C439.057 165.591 408.336 136.464 407.712 135.881ZM358.267 296.483C334.315 310.302 314.289 303.065 308.613 280.769C297.648 279.259 289.723 270.823 287.275 256.973C284.203 212.193 307.968 176.588 342 162.134C356.58 156.833 368.743 160.613 375.262 171.569C395.257 168.132 409.565 181.837 409.565 207.642C409.565 240.342 386.571 280.144 358.267 296.483Z" fill="#455A64"/>
<path d="M409.565 207.642C409.565 240.342 386.603 280.144 358.267 296.483C334.315 310.302 314.289 303.065 308.613 280.769C315.809 281.81 324.307 279.883 333.44 274.604C359.391 259.639 380.406 223.211 380.406 193.282C380.406 184.388 378.553 177.067 375.262 171.569C395.257 168.132 409.565 181.837 409.565 207.642Z" fill="#263238"/>
<path d="M318.298 277.644L334.575 287.048V255.515L318.298 246.111V277.644Z" fill="#228CBA"/>
<path opacity="0.2" d="M318.298 277.644L334.575 287.048V255.515L318.298 246.111V277.644Z" fill="black"/>
<path d="M395.975 220.066L358.246 202.383L320.517 263.638L334.575 255.515V287.048L352.404 276.759V256.129L364.078 249.392V270.011L381.927 259.701V228.168L395.975 220.066Z" fill="#228CBA"/>
<path d="M341.958 192.98L358.246 202.383L320.516 263.638L304.229 254.234L341.958 192.98Z" fill="#228CBA"/>
<path opacity="0.1" d="M341.958 192.98L358.246 202.383L320.516 263.638L304.229 254.234L341.958 192.98Z" fill="black"/>
<path d="M341.958 192.98L358.246 202.383L395.975 220.066L379.688 210.662L341.958 192.98Z" fill="#228CBA"/>
<path opacity="0.4" d="M341.958 192.98L358.246 202.383L395.975 220.066L379.688 210.662L341.958 192.98Z" fill="white"/>
<path d="M352.404 276.759L364.078 270.011V249.392L352.404 256.129V276.759Z" fill="#228CBA"/>
<path opacity="0.2" d="M352.404 276.759L364.078 270.011V249.392L352.404 256.129V276.759Z" fill="black"/>
<path d="M407.711 135.881L406.774 135.339C392.653 127.404 373.783 128.466 353.049 140.421C321.807 158.489 294.731 196.437 281.933 236.228C276.851 252.005 274.706 260.357 274.706 275.614V287.871C274.706 329.266 320.86 384.949 342.448 404.829C342.93 405.277 343.457 405.675 344.02 406.016C344.034 406.036 344.053 406.051 344.075 406.061C344.097 406.07 344.122 406.072 344.145 406.068C345.405 406.846 346.815 407.352 348.282 407.552C349.75 407.753 351.243 407.643 352.666 407.231C354.088 406.819 355.409 406.114 356.542 405.16C357.675 404.206 358.596 403.026 359.245 401.694C377.844 363.611 432.08 248.798 432.08 204.279V192.063C432.08 164.467 422.749 144.92 407.711 135.881ZM308.613 280.769C308.322 279.633 308.051 278.446 307.842 277.228C307.231 273.812 306.938 270.347 306.968 266.876C306.968 234.177 329.878 194.386 358.266 178.046C361.26 176.312 364.396 174.835 367.639 173.631C370.116 172.71 372.671 172.013 375.272 171.548C395.267 168.111 409.576 181.816 409.576 207.622C409.576 240.321 386.613 280.123 358.277 296.462C334.346 310.302 314.289 303.065 308.613 280.769Z" fill="#37474F"/>
<path d="M148.719 92.413H126.85C122.105 92.413 117.554 90.5281 114.199 87.1729C110.844 83.8176 108.959 79.267 108.959 74.522V69.4713C108.959 64.2015 111.052 59.1476 114.779 55.4213C118.505 51.695 123.559 49.6016 128.829 49.6016C134.098 49.6016 139.152 51.695 142.879 55.4213C146.605 59.1476 148.698 64.2015 148.698 69.4713L148.719 92.413Z" fill="#263238"/>
<path d="M112.135 59.5781L107.48 57.11C107.627 56.7996 107.836 56.5222 108.093 56.2946C108.35 56.067 108.651 55.894 108.977 55.7859C109.303 55.6779 109.648 55.6371 109.99 55.666C110.332 55.6949 110.665 55.7929 110.969 55.9541C111.591 56.2928 112.06 56.8581 112.277 57.5328C112.494 58.2075 112.443 58.9399 112.135 59.5781Z" fill="#263238"/>
<path d="M112.52 60.0988L107.626 61.9317C107.489 61.6167 107.418 61.2774 107.417 60.9341C107.415 60.5909 107.483 60.2509 107.616 59.9346C107.749 59.6183 107.945 59.3323 108.192 59.0938C108.439 58.8554 108.732 58.6694 109.053 58.5472C109.72 58.3151 110.45 58.3465 111.094 58.6349C111.739 58.9233 112.249 59.4469 112.52 60.0988Z" fill="#263238"/>
<path d="M155.967 117.771L161.986 128.799L153.624 135.974L145.262 123.009L155.967 117.771Z" fill="#9A4A4D"/>
<path d="M139.138 94.1105C142.262 94.3812 145.553 95.7246 147.813 100.359L157.185 119.604C157.185 119.604 155.602 125.935 147.355 126.779L144.085 121.759L139.138 94.1105Z" fill="#228CBA"/>
<path opacity="0.1" d="M139.138 94.1105C142.262 94.3812 145.553 95.7246 147.813 100.359L157.185 119.604C157.185 119.604 155.602 125.935 147.355 126.779L144.085 121.759L139.138 94.1105Z" fill="black"/>
<path d="M83.5282 245.518C81.9557 244.705 80.9664 246.694 79.5397 248.298C78.4983 249.412 76.9883 251.193 76.7592 252.464C76.4155 254.359 78.1234 257.327 80.0083 258.972C81.8932 260.618 84.0801 261.784 84.7675 265.377C85.4548 268.97 86.8502 271.105 90.5784 272.719C94.6606 274.479 100.128 273.916 101.982 272.719C104.179 271.292 102.169 269.74 99.0969 265.335C95.0772 259.587 91.9426 255.473 91.9426 250.11L83.5282 245.518Z" fill="#263238"/>
<path d="M86.7463 240.8L83.4451 245.643C82.7473 246.647 82.474 247.887 82.6846 249.092C82.8952 250.297 83.5726 251.37 84.5698 252.078L84.6739 252.151C85.6758 252.753 86.8568 252.984 88.0116 252.805C89.1664 252.626 90.2221 252.049 90.9951 251.172L96.1396 245.549L86.7463 240.8Z" fill="#B16668"/>
<path d="M146.074 149.002C146.282 155.167 147.365 177.64 142.867 189.439C140.371 196.138 137.232 202.58 133.494 208.673C132.151 210.975 93.5465 248.559 93.5465 248.559C93.5465 248.559 86.9857 248.079 85.9443 241.727C85.9443 241.727 101.763 214.828 105.189 209.319C108.615 203.81 120.747 195.344 120.747 195.344L119.644 143.639L146.074 149.002Z" fill="#37474F"/>
<path d="M138.845 277.757L147.009 275.9L144.306 264.009L136.141 265.866L138.845 277.757Z" fill="#B16668"/>
<path d="M132.473 167.83C135.269 165.248 137.773 162.367 139.94 159.239C146.188 150.616 145.22 142.962 145.22 142.962H142.658L108.907 143.649C105.554 149.137 104.825 157.458 105.96 165.518C108.303 182.337 122.237 211.443 122.237 211.443C122.039 213.745 121.07 223.409 123.278 231.98C126.746 245.518 136.181 268.428 136.181 268.428C136.181 268.428 142.085 269.272 145.022 265.856C145.022 265.856 139.815 219.4 138.388 207.538C136.837 194.604 132.473 167.83 132.473 167.83Z" fill="#37474F"/>
<path d="M146.095 271.865L145.824 270.698C146.688 270.865 150.354 276.947 153.988 279.592C157.966 282.487 161.424 284.195 163.205 285.507C165.579 287.246 162.163 290.828 156.279 291.141C153.374 291.297 148.084 290.412 146.449 288.871C144.814 287.329 143.637 284.705 142.346 283.664C141.054 282.622 138.43 281.581 137.545 280.154C137.066 279.373 136.982 277.426 137.045 275.76C137.107 274.093 137.139 272.552 137.67 272.573C137.67 272.75 137.868 273.468 137.868 273.468C139.405 274.245 141.114 274.622 142.835 274.562C144.21 274.479 146.772 274.156 146.095 271.865Z" fill="#263238"/>
<path d="M137.326 199.603C137.326 199.603 133.39 171.642 132.474 167.83C132.474 167.83 139.409 165.185 141.544 162.769C141.544 162.769 140.024 166.154 135.056 169.163L137.326 199.603Z" fill="#263238"/>
<path d="M116.478 198.52C116.478 198.52 120.539 209.173 122.226 211.475C122.226 211.475 121.799 219.4 121.862 221.003L119.664 222.909C119.664 222.909 119.56 216.255 120.706 212.225C118.7 207.862 117.278 203.254 116.478 198.52Z" fill="#263238"/>
<path d="M144.179 123.977C144.71 128.872 146.074 148.971 146.074 148.971C129.922 157.593 109.886 151.876 106.824 148.325C108.422 142.466 111.553 137.139 115.895 132.892L110.688 118.312C110.688 118.312 110.063 116.813 110.073 116.802C110.396 116.261 118.207 109.221 114.364 98.0574C114.228 97.6521 114.186 97.2212 114.242 96.7974C114.298 96.3736 114.449 95.968 114.685 95.6116C114.921 95.2552 115.235 94.9572 115.604 94.7404C115.972 94.5236 116.385 94.3937 116.811 94.3604L121.445 93.9855L134.025 93.6106C137.024 93.7877 139.17 94.0688 139.17 94.0688C141.096 95.8809 144.137 100.827 146.105 105.868C147.345 109.159 148.719 114.355 144.179 123.977Z" fill="#228CBA"/>
<path opacity="0.1" d="M114.03 123.592L115.874 116.459L118.154 132.933L113.541 135.495L115.895 132.923L113.51 126.269L114.03 123.592Z" fill="black"/>
<path d="M141.617 58.2556C143.7 59.4948 146.314 64.7746 146.053 75.8342C145.835 85.2066 142.794 87.5393 141.274 88.2058C139.753 88.8723 136.806 88.4662 133.984 87.9871V93.621C133.984 93.621 138.243 101.504 137.285 104.649C135.202 105.003 132.588 103.608 128.891 101.098C126.141 99.0442 123.645 96.6706 121.456 94.0272L121.518 81.0827C121.518 81.0827 119.831 82.7177 116.978 80.2184C114.624 78.1356 113.854 74.6886 115.666 72.8141C116.142 72.3711 116.716 72.0474 117.342 71.87C117.967 71.6925 118.626 71.6662 119.264 71.7934C119.902 71.9205 120.5 72.1974 121.01 72.6012C121.519 73.005 121.926 73.5241 122.195 74.1159C122.195 74.1159 126.767 74.2929 132.838 70.9917C135.2 69.7087 137.226 67.8868 138.751 65.6738C140.277 63.4608 141.259 60.9193 141.617 58.2556Z" fill="#B16668"/>
<path d="M135.598 73.4807C135.602 73.714 135.537 73.9434 135.411 74.14C135.285 74.3366 135.104 74.4918 134.891 74.5862C134.677 74.6805 134.441 74.7099 134.211 74.6705C133.98 74.6311 133.767 74.5248 133.597 74.3648C133.427 74.2049 133.308 73.9983 133.255 73.7711C133.202 73.5438 133.217 73.3059 133.298 73.0871C133.379 72.8682 133.523 72.6782 133.712 72.5408C133.9 72.4034 134.125 72.3246 134.359 72.3143C134.677 72.3059 134.986 72.4237 135.218 72.6422C135.451 72.8607 135.587 73.1621 135.598 73.4807Z" fill="#263238"/>
<g style="mix-blend-mode:multiply" opacity="0.5">
<path d="M135.9 81.3952L138.638 82.2699C138.588 82.4526 138.502 82.6234 138.384 82.7722C138.267 82.9209 138.121 83.0446 137.955 83.1359C137.789 83.2272 137.606 83.2842 137.418 83.3036C137.229 83.323 137.039 83.3044 136.858 83.2488C136.489 83.1247 136.182 82.8619 136.003 82.516C135.825 82.17 135.787 81.7681 135.9 81.3952Z" fill="#9A4A4D"/>
</g>
<path d="M145.251 69.8566L142.887 68.2112C142.986 68.05 143.117 67.9108 143.273 67.8022C143.428 67.6936 143.603 67.6179 143.789 67.5799C143.974 67.5418 144.165 67.5422 144.351 67.5809C144.536 67.6196 144.711 67.6959 144.866 67.8051C145.184 68.03 145.402 68.3699 145.474 68.7528C145.546 69.1357 145.466 69.5316 145.251 69.8566Z" fill="#263238"/>
<path d="M144.7 72.6267C144.712 72.7844 144.693 72.9429 144.644 73.0932C144.595 73.2434 144.516 73.3823 144.412 73.5016C144.308 73.6209 144.181 73.7183 144.04 73.788C143.898 73.8578 143.743 73.8984 143.585 73.9076C143.341 73.9302 143.095 73.8791 142.88 73.7609C142.665 73.6427 142.49 73.4628 142.378 73.2444C142.266 73.026 142.223 72.7791 142.252 72.5354C142.282 72.2918 142.384 72.0627 142.545 71.8775C142.706 71.6923 142.919 71.5596 143.156 71.4965C143.393 71.4334 143.644 71.4427 143.876 71.5233C144.107 71.6039 144.31 71.7521 144.457 71.9488C144.603 72.1454 144.688 72.3815 144.7 72.6267Z" fill="#263238"/>
<g style="mix-blend-mode:multiply" opacity="0.5">
<path d="M139.138 71.9602L139.326 79.052L143.064 77.8961L139.138 71.9602Z" fill="#9A4A4D"/>
</g>
<g style="mix-blend-mode:multiply" opacity="0.5">
<path d="M133.942 87.9872C130.922 87.5914 124.715 85.8107 123.747 83.353C124.137 84.5918 124.896 85.6819 125.923 86.4772C127.777 88.0601 133.942 89.8513 133.942 89.8513V87.9872Z" fill="#9A4A4D"/>
</g>
<path d="M96.837 141.712C96.9099 140.671 98.8156 129.872 100.117 123.821L112.843 127.716L110.76 136.203L100.19 146.44C99.1268 146.242 98.1822 145.637 97.5564 144.755C96.9306 143.873 96.6726 142.781 96.837 141.712Z" fill="#B16668"/>
<path d="M116.78 94.4021C111.896 94.8291 105.46 95.558 102.398 109.461C99.5241 122.488 98.8159 127.039 98.8159 127.039C98.8159 127.039 102.575 131.798 112.302 131.278L115.874 116.459C122.382 107.888 120.289 101.754 116.78 94.4021Z" fill="#228CBA"/>
<path d="M157.925 131.632C159.674 128.383 160.112 128.237 161.143 127.466C162.174 126.695 168.568 125.8 171.213 125.581C174.337 125.321 175.43 125.894 174.566 128.57C172.712 134.298 167.089 146.461 165.829 148.148C165.006 149.189 164.84 150.231 161.34 150.606C158.07 150.929 153.967 151.106 152.759 151.178C151.551 151.251 149.885 151.553 150.968 148.002C152.346 143.985 153.942 140.047 155.748 136.203C157.092 133.329 157.925 131.632 157.925 131.632Z" fill="#263238"/>
<path d="M110.802 136.203C110.802 136.203 139.086 139.192 142.741 138.057C146.397 136.922 151.333 133.256 153.978 131.746C156.623 130.236 158.518 130.101 158.518 130.705C158.518 131.309 156.259 134.797 155.748 136.224C155.238 137.651 158.185 137.651 162.059 136.766C165.933 135.88 167.485 133.642 168.495 134.933C169.505 136.224 166.35 142.691 159.914 145.097C153.478 147.502 148.698 145.909 143.387 146.138C138.076 146.367 107.605 148.742 100.222 146.419C100.035 145.244 100.174 144.04 100.624 142.939C101.074 141.837 101.817 140.88 102.773 140.171C105.16 138.33 107.889 136.981 110.802 136.203Z" fill="#B16668"/>
<path d="M291.587 35.3971L299.345 30.9192C299.303 30.6051 299.282 30.2885 299.283 29.9715V27.7221C299.4 25.55 300.026 23.4358 301.112 21.5507C302.197 19.6656 303.711 18.0624 305.531 16.8709C306.074 16.5053 306.685 16.2532 307.327 16.1297C307.969 16.0062 308.63 16.0139 309.27 16.1523C309.842 10.4663 313.779 4.04099 318.569 1.28132C323.776 -1.70746 327.942 0.708557 327.942 6.69653V10.0498C327.922 11.6843 327.655 13.3064 327.15 14.861L333.596 11.1432C335.513 10.0394 337.064 10.935 337.064 13.1531C336.999 14.3582 336.652 15.5312 336.049 16.5769C335.447 17.6226 334.607 18.5118 333.596 19.1723L291.587 43.4262C289.671 44.5301 288.119 43.6345 288.119 41.4163C288.184 40.2112 288.532 39.0383 289.134 37.9926C289.737 36.9468 290.577 36.0577 291.587 35.3971Z" fill="#F0F0F0"/>
<path d="M254.441 87.4769L260.293 84.0923C260.259 83.8543 260.242 83.6142 260.241 83.3738V81.6867C260.331 80.0455 260.806 78.4485 261.627 77.0248C262.449 75.601 263.593 74.3905 264.969 73.491C265.378 73.2142 265.839 73.0235 266.325 72.9304C266.81 72.8373 267.309 72.8438 267.791 72.9495C268.081 70.6823 268.858 68.5048 270.07 66.5668C271.281 64.6288 272.899 62.9764 274.81 61.7234C278.715 59.4636 281.892 61.2964 281.892 65.8056V68.3466C281.875 69.5782 281.671 70.8001 281.288 71.9706L286.151 69.1693C287.598 68.3362 288.775 69.0131 288.775 70.6793C288.725 71.5905 288.461 72.4771 288.006 73.2676C287.55 74.0581 286.914 74.7304 286.151 75.2302L254.441 93.5273C252.993 94.3708 251.816 93.6939 251.816 92.0173C251.866 91.1074 252.129 90.2219 252.585 89.4329C253.041 88.644 253.677 87.9738 254.441 87.4769Z" fill="#F0F0F0"/>
</svg>
